<svg id="visual" viewBox="0 0 900 600" width="900" height="600" xmlns="http://www.w3.org/2000/svg" xmlns:xlink="http://www.w3.org/1999/xlink" version="1.1"><rect x="0" y="0" width="900" height="600" fill="#504d54"></rect><path d="M0 409L21.5 407.8C43 406.7 86 404.3 128.8 414.7C171.7 425 214.3 448 257.2 454.2C300 460.3 343 449.7 385.8 449.2C428.7 448.7 471.3 458.3 514.2 456.5C557 454.7 600 441.3 642.8 440.5C685.7 439.7 728.3 451.3 771.2 455C814 458.7 857 454.3 878.5 452.2L900 450L900 601L878.5 601C857 601 814 601 771.2 601C728.3 601 685.7 601 642.8 601C600 601 557 601 514.2 601C471.3 601 428.7 601 385.8 601C343 601 300 601 257.2 601C214.3 601 171.7 601 128.8 601C86 601 43 601 21.5 601L0 601Z" fill="#cb26dc"></path><path d="M0 485L21.5 477.7C43 470.3 86 455.7 128.8 455.2C171.7 454.7 214.3 468.3 257.2 474.8C300 481.3 343 480.7 385.8 478.3C428.7 476 471.3 472 514.2 465.2C557 458.3 600 448.7 642.8 451.5C685.7 454.3 728.3 469.7 771.2 480.5C814 491.3 857 497.7 878.5 500.8L900 504L900 601L878.5 601C857 601 814 601 771.2 601C728.3 601 685.7 601 642.8 601C600 601 557 601 514.2 601C471.3 601 428.7 601 385.8 601C343 601 300 601 257.2 601C214.3 601 171.7 601 128.8 601C86 601 43 601 21.5 601L0 601Z" fill="#aa2cd9"></path><path d="M0 514L21.5 510.8C43 507.7 86 501.3 128.8 495.3C171.7 489.3 214.3 483.7 257.2 482C300 480.3 343 482.7 385.8 481.8C428.7 481 471.3 477 514.2 479.5C557 482 600 491 642.8 500.3C685.7 509.7 728.3 519.3 771.2 516.5C814 513.7 857 498.3 878.5 490.7L900 483L900 601L878.5 601C857 601 814 601 771.2 601C728.3 601 685.7 601 642.8 601C600 601 557 601 514.2 601C471.3 601 428.7 601 385.8 601C343 601 300 601 257.2 601C214.3 601 171.7 601 128.8 601C86 601 43 601 21.5 601L0 601Z" fill="#8730d5"></path><path d="M0 506L21.5 514C43 522 86 538 128.8 543C171.7 548 214.3 542 257.2 538.8C300 535.7 343 535.3 385.8 536.3C428.7 537.3 471.3 539.7 514.2 538.2C557 536.7 600 531.3 642.8 525.8C685.7 520.3 728.3 514.7 771.2 513.2C814 511.7 857 514.3 878.5 515.7L900 517L900 601L878.5 601C857 601 814 601 771.2 601C728.3 601 685.7 601 642.8 601C600 601 557 601 514.2 601C471.3 601 428.7 601 385.8 601C343 601 300 601 257.2 601C214.3 601 171.7 601 128.8 601C86 601 43 601 21.5 601L0 601Z" fill="#5f32cf"></path><path d="M0 569L21.5 567.3C43 565.7 86 562.3 128.8 557.7C171.7 553 214.3 547 257.2 548C300 549 343 557 385.8 558C428.7 559 471.3 553 514.2 554.5C557 556 600 565 642.8 565C685.7 565 728.3 556 771.2 550.8C814 545.7 857 544.3 878.5 543.7L900 543L900 601L878.5 601C857 601 814 601 771.2 601C728.3 601 685.7 601 642.8 601C600 601 557 601 514.2 601C471.3 601 428.7 601 385.8 601C343 601 300 601 257.2 601C214.3 601 171.7 601 128.8 601C86 601 43 601 21.5 601L0 601Z" fill="#2433c7"></path></svg>